<?xml version="1.0" encoding="UTF-8"?>
<svg id="Capa_2" data-name="Capa 2" xmlns="http://www.w3.org/2000/svg" viewBox="0 0 43.97 79.11">
  <defs>
    <style>
      .cls-1 {
        fill: #20efe9;
      }
    </style>
  </defs>
  <g id="Layer_1" data-name="Layer 1">
    <path class="cls-1" d="M35.93,6.71h-6.3v-3.49c0-1.78-1.44-3.22-3.22-3.22h-8.85c-1.78,0-3.22,1.44-3.22,3.22v3.49h-6.3C3.6,6.71,0,10.31,0,14.75v56.31c0,4.44,3.6,8.04,8.04,8.04h27.89c4.44,0,8.04-3.6,8.04-8.04V14.75c0-4.44-3.6-8.05-8.04-8.05ZM32.88,41.41c-4.39,7.6-8.78,15.19-13.16,22.79-.02.03-.04.06-.05.09-.3.56-.65,1.09-1.39.82-.78-.28-.59-.97-.49-1.55.34-1.91.71-3.82,1.07-5.72.63-3.35,1.27-6.71,1.9-10.06.06-.29.07-.59.12-1.01-2.71,0-5.29.03-7.87-.02-.68-.02-1.35-.32-2.03-.49.19-.64.28-1.35.6-1.92,4.23-7.38,8.5-14.73,12.76-22.1.1-.17.16-.42.31-.51.39-.23.82-.39,1.24-.58.18.39.55.81.5,1.17-.23,1.69-.57,3.37-.88,5.04-.7,3.72-1.41,7.43-2.11,11.15-.06.29-.07.59-.13,1.01.42.02.77.05,1.12.05,2.48,0,4.96-.03,7.44-.03,1.46,0,1.8.61,1.06,1.89Z"/>
  </g>
</svg>