<?xml version="1.0" encoding="UTF-8"?>
<svg id="Capa_2" data-name="Capa 2" xmlns="http://www.w3.org/2000/svg" viewBox="0 0 87.48 87.12">
  <defs>
    <style>
      .cls-1 {
        fill: #20efe9;
      }
    </style>
  </defs>
  <g id="Layer_1" data-name="Layer 1">
    <path class="cls-1" d="M13.28,30.59L.28,74.53c-.72,3.06-.03,6.25,1.94,8.72,1.94,2.47,4.88,3.88,8.03,3.88h67c3.16,0,6.09-1.41,8.03-3.88,1.97-2.47,2.66-5.66,1.91-8.88l-12.94-43.62c-1.09-4.62-5.19-7.88-9.97-7.88h-4.22c.62-1.75.97-3.66.97-5.62C61.03,7.75,53.28,0,43.75,0s-17.28,7.75-17.28,17.25c0,1.97.34,3.88.97,5.62h-4.22c-4.78,0-8.88,3.25-9.94,7.72h0ZM43.75,6.25c6.09,0,11.03,4.94,11.03,11,0,2.06-.59,3.97-1.59,5.62h-18.88c-1-1.66-1.59-3.56-1.59-5.62,0-6.06,4.94-11,11.03-11h0Z"/>
  </g>
</svg>