<?xml version="1.0" encoding="UTF-8"?>
<svg id="Capa_2" data-name="Capa 2" xmlns="http://www.w3.org/2000/svg" viewBox="0 0 50.95 97.96">
  <defs>
    <style>
      .cls-1 {
        fill: #20efe9;
        fill-rule: evenodd;
      }
    </style>
  </defs>
  <g id="Layer_1" data-name="Layer 1">
    <path class="cls-1" d="M39.38,51.15c3.3,2.16,6.07,5.06,8.07,8.48,2.22,3.79,3.5,8.18,3.5,12.86,0,7.03-2.85,13.4-7.46,18.01s-10.98,7.46-18.01,7.46-13.4-2.85-18.01-7.46c-4.61-4.61-7.46-10.98-7.46-18.01,0-4.68,1.27-9.07,3.5-12.86,2-3.42,4.78-6.32,8.07-8.48V13.91c0-3.83,1.56-7.3,4.08-9.82C18.17,1.57,21.65,0,25.47,0s7.3,1.56,9.82,4.08c2.52,2.52,4.08,6,4.08,9.82v37.25ZM22.6,61.05v-28.18c0-1.59,1.29-2.87,2.87-2.87s2.87,1.29,2.87,2.87v28.18c2.11.53,3.99,1.62,5.47,3.11,2.14,2.14,3.46,5.09,3.46,8.34s-1.32,6.21-3.46,8.34c-2.13,2.14-5.09,3.46-8.34,3.46s-6.21-1.32-8.34-3.46c-2.14-2.13-3.46-5.09-3.46-8.34s1.32-6.21,3.46-8.34c1.48-1.48,3.37-2.58,5.47-3.11ZM29.75,68.21c-1.09-1.09-2.61-1.77-4.29-1.77s-3.19.68-4.29,1.77c-1.09,1.09-1.77,2.61-1.77,4.29s.68,3.19,1.77,4.29c1.09,1.09,2.61,1.77,4.29,1.77s3.19-.68,4.29-1.77c1.09-1.09,1.77-2.61,1.77-4.29s-.68-3.19-1.77-4.29Z"/>
  </g>
</svg>